<svg id="svg" version="1.1" xmlns="http://www.w3.org/2000/svg" xmlns:xlink="http://www.w3.org/1999/xlink" width="400" height="195.1219512195122" viewBox="0, 0, 400,195.1219512195122"><g id="svgg"><path id="path0" d="M18.567 12.487 C 17.476 12.745,17.184 13.445,17.175 15.825 L 17.171 17.114 13.415 17.222 C 11.066 17.290,9.366 17.428,8.879 17.593 C 7.486 18.061,7.521 17.681,7.516 32.432 C 7.511 47.736,7.192 46.113,10.233 46.212 L 12.258 46.278 12.324 48.303 C 12.421 51.266,11.722 51.013,20.007 51.080 L 26.927 51.136 26.927 97.568 L 26.927 144.000 22.355 144.000 C 16.782 144.000,17.171 143.794,17.171 146.746 L 17.171 148.878 14.951 148.878 C 13.292 148.878,12.674 148.947,12.505 149.150 C 12.174 149.549,12.293 176.513,12.629 177.099 C 13.016 177.775,13.363 177.830,17.788 177.909 L 22.014 177.984 22.080 180.010 C 22.133 181.635,22.215 182.105,22.495 182.384 C 23.058 182.946,84.041 182.923,84.662 182.360 C 84.897 182.148,85.073 181.750,85.073 181.433 C 85.073 181.128,85.161 180.878,85.268 180.878 C 85.381 180.878,85.463 180.260,85.463 179.415 L 85.463 177.951 87.594 177.951 C 90.544 177.951,90.341 178.140,90.341 175.394 L 90.341 173.073 92.458 173.073 C 95.531 173.073,95.220 174.396,95.220 161.324 C 95.220 147.850,95.483 148.917,92.146 148.892 L 90.341 148.878 90.341 147.144 C 90.341 145.315,90.064 144.419,89.420 144.164 C 89.229 144.089,83.871 144.021,77.512 144.014 L 65.951 144.000 65.971 118.488 C 65.982 104.456,66.061 93.269,66.145 93.628 C 66.404 94.722,67.103 95.011,69.512 95.020 L 70.829 95.024 70.829 97.229 C 70.829 99.994,70.738 99.902,73.492 99.902 L 75.687 99.902 75.746 104.384 C 75.818 109.870,75.638 109.533,78.543 109.628 L 80.585 109.694 80.585 111.881 C 80.585 114.625,80.496 114.537,83.249 114.537 L 85.443 114.537 85.502 119.113 C 85.572 124.573,85.365 124.173,88.176 124.260 L 90.285 124.326 90.400 128.065 C 90.521 132.040,90.710 133.138,91.330 133.470 C 91.630 133.631,94.278 134.039,95.073 134.047 C 95.154 134.048,95.220 134.971,95.220 136.098 C 95.220 138.867,95.279 138.927,98.032 138.927 L 100.065 138.927 100.130 143.171 C 100.214 148.657,100.105 148.460,103.171 148.634 L 104.976 148.736 104.976 150.914 C 104.976 153.649,104.887 153.561,107.639 153.561 L 109.833 153.561 109.892 158.042 C 109.964 163.523,109.789 163.192,112.661 163.285 L 114.676 163.351 114.790 167.090 C 114.911 171.064,115.100 172.163,115.720 172.495 C 116.017 172.653,118.659 173.063,119.446 173.072 C 119.517 173.073,119.605 174.035,119.641 175.210 C 119.724 177.898,119.664 177.837,122.334 177.919 L 124.454 177.985 124.520 180.105 C 124.563 181.508,124.671 182.311,124.839 182.479 C 125.209 182.848,160.486 182.851,161.704 182.481 C 163.505 181.935,163.373 187.081,163.448 114.878 L 163.514 51.122 167.757 51.119 C 172.217 51.116,172.878 51.051,172.878 50.611 C 172.878 50.463,172.966 50.341,173.073 50.341 C 173.191 50.341,173.268 49.528,173.268 48.293 L 173.268 46.244 175.384 46.244 C 178.206 46.244,178.139 46.324,178.169 42.911 C 178.181 41.471,178.233 40.451,178.283 40.645 C 178.422 41.180,179.162 41.366,181.155 41.366 L 182.967 41.366 183.076 45.122 C 183.259 51.492,182.315 50.973,193.902 51.078 L 202.537 51.156 202.537 97.561 L 202.537 143.965 193.902 144.044 C 182.318 144.149,183.259 143.633,183.076 149.983 L 182.968 153.723 180.859 153.788 C 177.968 153.878,178.244 152.916,178.244 162.888 C 178.244 173.610,178.026 172.865,181.213 173.032 L 183.024 173.126 183.024 175.232 C 183.024 178.152,182.643 177.951,188.192 177.951 L 192.746 177.951 192.812 180.088 C 192.856 181.504,192.964 182.311,193.132 182.479 C 193.541 182.887,253.446 182.848,254.537 182.438 C 255.412 182.109,255.774 181.401,255.794 179.980 C 255.800 179.540,255.901 178.904,256.019 178.566 L 256.233 177.951 258.345 177.951 C 261.273 177.951,261.073 178.138,261.073 175.394 L 261.073 173.073 263.092 173.073 C 264.783 173.073,265.179 173.014,265.531 172.709 L 265.951 172.344 265.951 161.889 C 265.951 155.888,265.874 151.242,265.770 150.985 C 265.670 150.738,265.537 150.298,265.475 150.006 C 265.315 149.258,264.762 149.034,262.792 148.922 L 261.073 148.824 261.058 147.339 C 261.023 143.773,261.927 144.006,248.146 144.003 L 236.683 144.000 236.683 134.146 L 236.683 124.293 238.799 124.293 C 241.565 124.293,241.561 124.297,241.561 121.497 L 241.561 119.415 243.691 119.415 C 246.641 119.415,246.439 119.603,246.439 116.857 L 246.439 114.537 251.317 114.537 L 256.195 114.537 256.195 116.741 C 256.195 119.507,256.103 119.415,258.868 119.415 L 261.073 119.415 261.073 121.547 C 261.073 124.331,261.035 124.293,263.819 124.293 L 265.951 124.293 265.951 126.498 C 265.951 129.261,265.861 129.171,268.608 129.171 L 270.796 129.171 270.862 133.415 C 270.946 138.894,270.841 138.704,273.875 138.876 L 275.652 138.977 275.766 142.708 C 275.887 146.674,276.076 147.773,276.695 148.104 C 276.996 148.265,279.644 148.673,280.439 148.681 C 280.520 148.682,280.585 149.675,280.585 150.888 C 280.585 153.651,280.496 153.561,283.237 153.561 L 285.420 153.561 285.516 159.756 C 285.615 166.192,285.739 167.235,286.452 167.616 C 286.749 167.775,289.391 168.185,290.179 168.194 C 290.250 168.194,290.338 170.105,290.374 172.439 C 290.458 177.921,290.351 177.728,293.398 177.901 L 295.185 178.003 295.251 180.019 C 295.351 183.082,292.625 182.732,316.349 182.732 C 340.449 182.731,338.680 182.949,338.721 179.980 C 338.727 179.540,338.828 178.904,338.946 178.566 L 339.160 177.951 341.271 177.951 C 344.200 177.951,344.000 178.138,344.000 175.394 L 344.000 173.073 346.019 173.073 C 347.710 173.073,348.106 173.014,348.458 172.709 L 348.878 172.344 348.878 161.889 C 348.878 155.888,348.801 151.242,348.696 150.985 C 348.597 150.738,348.464 150.298,348.401 150.006 C 348.242 149.258,347.689 149.034,345.719 148.922 L 344.000 148.824 343.985 147.339 C 343.950 143.773,344.854 144.006,331.073 144.003 L 319.610 144.000 319.610 139.280 C 319.610 136.684,319.522 134.072,319.415 133.475 C 319.308 132.878,319.170 131.967,319.108 131.449 C 318.970 130.284,318.524 129.815,317.429 129.680 C 316.965 129.623,316.168 129.523,315.659 129.459 L 314.732 129.342 314.732 127.073 C 314.732 125.825,314.644 124.316,314.537 123.719 C 314.430 123.122,314.292 122.211,314.230 121.693 C 314.089 120.503,313.647 120.060,312.453 119.909 C 311.936 119.844,311.139 119.744,310.683 119.688 L 309.854 119.586 309.854 117.592 C 309.854 114.756,309.831 114.732,307.111 114.732 L 304.976 114.732 304.976 111.131 C 304.976 109.151,304.894 107.329,304.794 107.082 C 304.694 106.836,304.561 106.395,304.499 106.103 C 304.339 105.355,303.786 105.132,301.817 105.020 L 300.098 104.921 300.098 103.215 C 300.098 100.406,299.827 100.133,297.024 100.111 L 295.220 100.098 295.220 98.086 C 295.220 95.307,295.133 95.220,292.383 95.220 L 290.341 95.220 290.341 93.208 C 290.341 90.429,290.255 90.341,287.505 90.341 L 285.463 90.341 285.449 88.829 C 285.420 85.946,284.988 85.488,282.244 85.436 C 281.167 85.415,281.922 85.345,284.195 85.253 C 289.433 85.043,289.907 84.809,289.940 82.419 C 289.965 80.605,290.123 80.461,292.222 80.335 C 294.302 80.211,294.829 79.940,294.829 78.994 C 294.829 78.689,294.917 78.439,295.024 78.439 C 295.137 78.439,295.220 77.821,295.220 76.976 L 295.220 75.512 296.865 75.512 C 299.645 75.512,300.098 75.057,300.098 72.263 L 300.098 70.634 302.116 70.634 C 304.917 70.634,304.976 70.576,304.976 67.831 L 304.976 65.756 307.092 65.756 C 309.858 65.756,309.854 65.760,309.854 62.960 L 309.854 60.878 311.984 60.878 C 314.932 60.878,314.732 61.062,314.732 58.349 L 314.732 56.058 318.390 55.948 C 323.564 55.794,324.053 55.553,324.087 53.151 C 324.093 52.711,324.192 52.081,324.307 51.750 L 324.517 51.149 331.214 51.087 C 338.638 51.018,338.732 51.001,338.732 49.726 C 338.732 49.421,338.820 49.171,338.927 49.171 C 339.039 49.171,339.122 48.562,339.122 47.736 L 339.122 46.301 340.993 46.190 C 343.083 46.065,343.610 45.795,343.610 44.848 C 343.610 44.542,343.698 44.293,343.805 44.293 C 343.933 44.293,344.000 40.598,344.000 33.598 C 344.000 20.818,344.302 22.049,341.163 22.049 L 339.122 22.049 339.122 19.933 C 339.122 17.169,339.124 17.171,336.342 17.171 L 334.276 17.171 334.189 15.854 C 334.010 13.127,333.673 12.588,332.027 12.390 C 329.936 12.140,273.121 12.386,272.344 12.648 C 271.408 12.965,271.243 13.301,271.009 15.361 C 270.778 17.390,271.048 17.119,269.019 17.350 C 266.398 17.648,266.304 17.767,266.039 21.133 C 265.904 22.838,265.900 22.848,265.529 22.450 C 265.198 22.095,264.923 22.049,263.114 22.049 L 261.073 22.049 261.073 19.933 C 261.073 17.169,261.075 17.171,258.293 17.171 L 256.227 17.171 256.141 15.854 C 255.962 13.127,255.624 12.587,253.978 12.391 C 251.875 12.139,190.193 12.385,189.417 12.648 C 188.451 12.975,187.930 14.482,187.904 17.024 C 187.903 17.105,186.943 17.171,185.770 17.171 C 182.986 17.171,183.024 17.133,183.024 19.916 L 183.024 22.049 181.707 22.053 C 179.298 22.062,178.599 22.351,178.340 23.445 C 178.235 23.890,178.175 23.290,178.151 21.561 C 178.090 17.111,178.175 17.178,172.537 17.174 L 168.390 17.171 168.375 15.659 C 168.358 13.868,168.046 12.871,167.398 12.538 C 166.838 12.250,106.488 12.271,105.897 12.560 C 105.315 12.844,105.116 13.470,105.019 15.331 L 104.925 17.115 101.194 17.223 C 98.866 17.290,97.170 17.429,96.684 17.593 C 95.291 18.061,95.326 17.681,95.321 32.432 C 95.316 47.736,94.996 46.113,98.038 46.212 L 100.063 46.278 100.129 48.303 C 100.228 51.332,98.794 51.015,112.690 51.078 L 124.488 51.131 124.448 80.541 C 124.426 96.717,124.360 107.913,124.301 105.421 C 124.172 99.886,124.351 100.223,121.485 100.129 L 119.471 100.064 119.357 96.325 C 119.235 92.350,119.046 91.252,118.426 90.920 C 118.130 90.761,115.487 90.352,114.700 90.343 C 114.629 90.342,114.541 89.380,114.505 88.204 C 114.422 85.518,114.481 85.578,111.824 85.496 L 109.715 85.430 109.600 81.691 C 109.479 77.716,109.290 76.618,108.670 76.286 C 108.370 76.125,105.722 75.717,104.927 75.709 C 104.846 75.708,104.780 74.785,104.780 73.659 C 104.780 70.889,104.721 70.829,101.968 70.829 L 99.935 70.829 99.870 66.585 C 99.786 61.123,99.884 61.304,96.927 61.123 L 95.220 61.019 95.220 59.041 C 95.220 56.221,95.194 56.195,92.477 56.195 L 90.341 56.195 90.327 52.244 C 90.306 46.639,90.201 46.447,87.171 46.442 L 85.463 46.439 85.463 44.158 C 85.463 42.904,85.376 41.389,85.269 40.792 C 85.162 40.196,85.024 39.284,84.962 38.766 C 84.822 37.589,84.378 37.133,83.234 36.990 C 82.743 36.928,81.946 36.829,81.463 36.769 L 80.585 36.659 80.585 34.937 C 80.585 32.111,80.318 31.840,77.512 31.819 L 75.707 31.805 75.707 29.524 C 75.707 28.269,75.620 26.755,75.513 26.158 C 75.406 25.561,75.268 24.650,75.206 24.132 C 75.066 22.955,74.622 22.499,73.477 22.356 C 72.987 22.294,72.190 22.195,71.707 22.134 L 70.829 22.025 70.829 20.025 C 70.829 17.260,70.741 17.171,67.992 17.171 L 65.951 17.171 65.951 15.437 C 65.951 13.608,65.674 12.712,65.029 12.457 C 64.549 12.267,19.373 12.296,18.567 12.487 M265.951 44.841 C 265.951 45.964,266.286 46.135,268.715 46.257 L 270.927 46.367 268.673 46.403 C 265.858 46.448,265.951 46.356,265.951 49.084 L 265.951 51.260 262.195 51.375 C 258.204 51.497,257.106 51.685,256.774 52.305 C 256.615 52.602,256.206 55.244,256.197 56.031 C 256.196 56.102,255.276 56.190,254.153 56.226 C 251.459 56.314,251.436 56.337,251.349 59.014 L 251.283 61.039 249.258 61.105 C 246.581 61.192,246.558 61.216,246.470 63.909 L 246.404 65.951 244.289 65.951 C 241.525 65.951,241.561 65.915,241.561 68.697 L 241.561 70.829 239.356 70.829 C 237.901 70.829,237.072 70.909,236.917 71.063 C 236.735 71.246,236.683 69.058,236.683 61.218 L 236.683 51.139 248.272 51.082 C 261.157 51.018,260.683 51.070,260.683 49.726 C 260.683 49.421,260.771 49.171,260.878 49.171 C 260.990 49.171,261.073 48.562,261.073 47.736 L 261.073 46.301 262.944 46.190 C 265.034 46.065,265.561 45.795,265.561 44.848 C 265.561 44.542,265.649 44.293,265.756 44.293 C 265.863 44.293,265.951 44.539,265.951 44.841 M338.431 83.290 C 337.790 83.681,336.780 84.788,336.780 85.100 C 336.780 85.205,336.868 85.237,336.976 85.171 C 337.083 85.104,337.171 84.961,337.171 84.852 C 337.171 84.549,338.203 83.583,338.690 83.428 C 338.928 83.352,339.122 83.209,339.122 83.109 C 339.122 82.870,339.120 82.870,338.431 83.290 M333.553 88.168 C 332.912 88.559,331.902 89.666,331.902 89.978 C 331.902 90.083,331.990 90.115,332.098 90.049 C 332.205 89.982,332.293 89.839,332.293 89.730 C 332.293 89.427,333.325 88.461,333.812 88.306 C 334.050 88.230,334.244 88.087,334.244 87.987 C 334.244 87.748,334.242 87.748,333.553 88.168 " stroke="none" fill="#fcfcfc" fill-rule="evenodd"></path><path id="path1" d="M339.235 80.756 C 339.181 80.843,339.180 81.155,339.234 81.448 C 339.299 81.809,339.260 81.939,339.114 81.849 C 338.304 81.348,335.973 83.269,335.573 84.765 C 335.373 85.513,335.278 85.620,334.842 85.593 C 334.419 85.566,334.346 85.639,334.373 86.062 C 334.401 86.497,334.293 86.592,333.546 86.792 C 332.068 87.187,330.128 89.522,330.618 90.315 C 330.693 90.437,330.493 90.499,330.102 90.476 L 329.463 90.439 329.463 107.317 L 329.463 124.195 329.957 124.253 C 330.353 124.299,330.518 124.499,330.787 125.254 C 331.203 126.428,332.378 127.530,333.546 127.842 C 334.293 128.042,334.401 128.137,334.373 128.573 C 334.348 128.977,334.439 129.085,334.850 129.132 C 335.256 129.179,335.407 129.350,335.593 129.974 C 336.021 131.401,338.335 133.267,339.095 132.797 C 339.217 132.722,339.280 132.921,339.257 133.313 L 339.220 133.951 356.098 133.951 L 372.976 133.951 373.033 133.457 C 373.079 133.062,373.279 132.896,374.035 132.628 C 375.166 132.226,376.268 131.086,376.602 129.974 C 376.788 129.350,376.939 129.179,377.345 129.132 C 377.724 129.088,377.868 128.948,377.911 128.579 C 377.957 128.184,378.157 128.018,378.913 127.750 C 380.044 127.348,381.146 126.208,381.480 125.096 C 381.667 124.472,381.818 124.301,382.223 124.254 L 382.732 124.195 382.732 107.317 L 382.732 90.439 382.093 90.476 C 381.702 90.499,381.502 90.437,381.577 90.315 C 382.047 89.555,380.181 87.240,378.754 86.813 C 378.131 86.626,377.960 86.475,377.913 86.070 C 377.865 85.659,377.757 85.567,377.353 85.593 C 376.917 85.620,376.823 85.513,376.623 84.765 C 376.310 83.598,375.209 82.423,374.035 82.006 C 373.279 81.738,373.079 81.572,373.033 81.177 L 372.976 80.683 356.154 80.640 C 346.903 80.616,339.289 80.668,339.235 80.756 M339.122 83.109 C 339.122 83.209,338.928 83.352,338.690 83.428 C 338.203 83.583,337.171 84.549,337.171 84.852 C 337.171 84.961,337.083 85.104,336.976 85.171 C 336.868 85.237,336.780 85.205,336.780 85.100 C 336.780 84.788,337.790 83.681,338.431 83.290 C 339.120 82.870,339.122 82.870,339.122 83.109 M334.244 87.987 C 334.244 88.087,334.050 88.230,333.812 88.306 C 333.325 88.461,332.293 89.427,332.293 89.730 C 332.293 89.839,332.205 89.982,332.098 90.049 C 331.990 90.115,331.902 90.083,331.902 89.978 C 331.902 89.666,332.912 88.559,333.553 88.168 C 334.242 87.748,334.244 87.748,334.244 87.987 " stroke="none" fill="#f49607" fill-rule="evenodd"></path><path id="path2" d="" stroke="none" fill="#f8c8100" fill-rule="evenodd"></path><path id="path3" d="" stroke="none" fill="#f8c8100" fill-rule="evenodd"></path><path id="path4" d="" stroke="none" fill="#f8c8100" fill-rule="evenodd"></path></g></svg>